# xmcd
#
# Track frame offsets: 
#        150
#        18664
#        40622
#        58597
#        79559
#        101786
#        123570
#        145046
#        170029
#        186423
#        201410
#        220695
#
# Disc length: 3240 seconds
#
# Revision: 0
# Processed by: cddbd v1.5.2PL0 Copyright (c) Steve Scherf et al.
# Submitted via: ExactAudioCopy v0.99pb3
#
DISCID=ad0ca60c
DTITLE=The Be Good Tanyas - Blue Horse
DYEAR=2001
DGENRE=Country
TTITLE0=The Littlest Birds
TTITLE1=Broken Telephone
TTITLE2=Rain And Snow
TTITLE3=Lakes of Pontchartrain
TTITLE4=Only in The Past
TTITLE5=The Coo Coo Bird
TTITLE6=Dogsong Aka Sleep Dog Lullaby
TTITLE7=Momsong
TTITLE8=Don't You Fall
TTITLE9=Up Against The Wall
TTITLE10=Oh Susanna
TTITLE11=Light Enough to Travel
EXTD=
EXTT0=
EXTT1=
EXTT2=
EXTT3=
EXTT4=
EXTT5=
EXTT6=
EXTT7=
EXTT8=
EXTT9=
EXTT10=
EXTT11=
PLAYORDER=
